<?xml version="1.0" encoding="utf-8"?>
<!-- Generator: Adobe Illustrator 27.4.0, SVG Export Plug-In . SVG Version: 6.00 Build 0)  -->
<svg version="1.1" xmlns="http://www.w3.org/2000/svg" xmlns:xlink="http://www.w3.org/1999/xlink" x="0px" y="0px"
	 viewBox="0 0 256 256" style="enable-background:new 0 0 256 256;" xml:space="preserve">
<style type="text/css">
	.st0{display:none;}
	.st1{display:inline;fill-rule:evenodd;clip-rule:evenodd;}
	.st2{fill:#00733B;}
	.st3{fill:#FFFFFF;}
</style>
<g id="Layer_2">
	<path d="M127.7,132.3c-3.9,0-8.2-1-11.8-2.9c-2-1-3.9-2.3-5.9-3.9c-1.6-1.3-2.9-2.3-4.6-3.9c-5.2-4.9-9.5-10.8-13.1-17.7
		c-4.3-8.5-6.9-18-7.2-27.9h6.2l0,0c0.3,8.8,2.6,17.4,6.6,25.2c2.9,5.9,7.2,11.5,11.8,16.1c1.3,1.3,2.6,2.3,3.9,3.3
		c1.6,1.3,3.3,2.3,4.9,3.3c5.2,2.9,12.1,2.9,17.4,0c1.6-1,3.3-2,4.9-3.3c1.3-1,2.6-2.3,3.9-3.3c4.6-4.3,8.8-9.8,11.8-16.1
		c3.9-7.9,6.2-16.4,6.6-25.2c0-1.6,1.3-2.9,3.3-2.9c1.6,0,2.9,1.6,2.9,3.3c-0.3,9.8-2.9,19.3-7.2,27.9c-3.3,6.6-7.9,12.8-13.1,17.7
		c-1.3,1.3-2.9,2.6-4.6,3.9c-2,1.6-3.9,2.6-5.9,3.9C135.9,131.3,131.7,132.3,127.7,132.3z M169.4,71.3c-0.3,0-0.7,0-1-0.3
		c-27.2-10.2-54.7-10.2-81.3,0c-1.6,0.7-3.3-0.3-3.9-1.6c-0.7-1.6,0.3-3.3,2-3.9c28.2-10.8,57-10.8,85.9,0c1.6,0.7,2.3,2.3,2,3.9
		C172,70.3,170.7,71.3,169.4,71.3z"/>
	<path d="M159,82.8c-3.6,0-7.5-1-11.8-2.9c-1.6-0.3-11.5-2.9-19-2.9c-7.5,0-17.4,2.6-18.7,2.9c-8.5,3.6-15.1,3.9-19.7,0.7
		c-5.6-3.9-6.2-10.8-6.2-12.1c0-0.3-0.3-2-0.3-4.3c0-2,0-3.9,0.3-5.9C80,54.9,78,51.3,78,47.4c0-13.1,21.6-22.6,50.1-22.6
		s50.1,9.8,50.1,22.6c0,3.9-2,7.5-5.6,10.8c0.7,5.2,0.3,9.2,0,10.2c0,1.3-0.7,8.5-6.2,12.1C164.5,82.1,161.9,82.8,159,82.8z
		 M128.2,70.7c8.8,0,20.3,3.3,20.6,3.3h0.3c6.2,2.6,11.1,3.3,14.1,1.3c3.3-2.3,3.3-7.2,3.3-7.2v-0.3c0,0,0.7-4.6-0.3-10.5
		c0-1,0.3-2.3,1.3-2.9c2-1.6,4.6-3.9,4.6-6.9c0-7.9-18-16.4-43.9-16.4s-43.9,8.8-43.9,16.4c0,2.9,2.3,5.2,4.6,6.9
		c1,0.7,1.3,1.6,1.3,2.9c-0.3,2-0.3,4.3-0.3,6.6c0,2.3,0,3.6,0,3.9V68c0,0,0,4.9,3.3,7.2c2.9,2,7.9,1.3,14.1-1.3h0.3
		C107.8,73.6,119.3,70.7,128.2,70.7z M215.7,231.2h-175c-1.6,0-3.3-1.3-3.3-3.3v-41c0-21.3,10.5-37,29.5-44.6
		c7.2-2.9,13.1-5.2,19.7-6.9l0.7-0.3c5.6-1.6,10.2-3.6,13.8-5.9c3.9-2.3,6.6-4.9,8.2-7.9c0.7-1.6,2.6-2.3,4.3-1.3
		c1.6,0.7,2.3,2.6,1.3,4.3c-2,3.9-5.6,7.5-10.5,10.5c-3.9,2.6-9.2,4.6-15.4,6.6v0c-6.6,2-12.1,4.3-19.3,6.9
		c-21,8.5-25.6,25.6-25.6,38.7v37.7h168.4V187c0-13.1-4.6-30.5-25.6-38.7c-6.9-2.6-12.8-4.9-19.3-6.9l-0.7-0.3
		c-6.2-2-11.1-3.9-15.4-6.6c-4.9-2.9-8.5-6.6-10.5-10.5c-0.7-1.6-0.3-3.3,1.3-4.3c1.6-0.7,3.3-0.3,4.3,1.3c1.3,2.9,4.3,5.6,8.2,7.9
		c3.6,2.3,8.2,4.3,13.8,5.9l1,0.3c6.6,2,12.5,4.3,19.7,6.9c19,7.5,29.5,23.3,29.5,44.6v41C218.6,229.9,217.3,231.2,215.7,231.2z"/>
	<g>
		<path d="M127.7,52c-3.6,0-7.2-1.3-10.5-3.6c-1-0.7-1.3-1.6-1.3-2.6v-7.5c0-1.6,1.3-3.3,3.3-3.3h17.7c1.6,0,3.3,1.3,3.3,3.3v7.5
			c0,1-0.7,2-1.3,2.6C134.9,50.7,131.3,52,127.7,52z M136.5,45.7L136.5,45.7L136.5,45.7z M121.8,44.1c3.9,2.3,7.5,2.3,11.5,0v-2.9
			h-11.5V44.1z"/>
	</g>
</g>
<g id="Layer_1">
	<g id="Layer_6" class="st0">
		<path class="st1" d="M243.8,109.6h-67.1c-1.5,0-2.8-1.4-2.8-3.3l-0.8-49.9c0-1.9,1.2-3.4,2.8-3.4h53.9c1.2,0,2.3,0.9,2.7,2.3
			l14.1,51C246.6,108.2,245.3,109.6,243.8,109.6L243.8,109.6z M179.5,103h60.4l-12-43.3h-49L179.5,103L179.5,103z"/>
		<path class="st1" d="M243.7,157H235c-4.6-10.5-14-17.8-24.8-17.8s-20.1,7.2-24.8,17.8h-8.7c-1.6,0-2.8-1.5-2.8-3.3v-47.4
			c0-1.8,1.3-3.3,2.8-3.3h67c1.6,0,2.8,1.5,2.8,3.3v47.4C246.5,155.5,245.3,157,243.7,157L243.7,157z M201,121.8h-14.7
			c-3.7,0-3.7-6.6,0-6.6H201C204.7,115.2,204.7,121.8,201,121.8z M59.9,183.8H28.4c-8.1,0-10.7-8.6-13.8-15.1L8,155.3
			c-1.1-2.2,0.3-5,2.4-5h54.5c-4.3,5.8-6.9,13.3-6.9,21.6C58,176.1,58.7,180.1,59.9,183.8L59.9,183.8z"/>
		<path class="st1" d="M184.3,183.8h-72.5c1.2-3.7,1.9-7.7,1.9-11.9c0-8.3-2.6-15.8-6.9-21.6h82.5c-4.3,5.8-6.9,13.3-6.9,21.6
			C182.4,176.1,183.1,180.1,184.3,183.8L184.3,183.8z M231.1,150.4h12.6c1.6,0,2.8,1.5,2.8,3.3v13.4c0,7.6-4.3,14-10.2,16
			c1.1-3.5,1.7-7.3,1.7-11.2C238.1,163.7,235.4,156.1,231.1,150.4L231.1,150.4z M71.8,143.7H10.5c-1,0-2,0.2-2.8,0.6v-13.8
			c0-1.8,1.3-3.3,2.8-3.3h27.2l53.1-80.4c0.5-0.8,1.4-1.3,2.2-1.3h58.4c1.6,0,2.8,1.5,2.8,3.3v94.8H99.9c-4.1-2.9-9-4.5-14.1-4.5
			C80.7,139.2,75.9,140.9,71.8,143.7L71.8,143.7z M86.5,126.6H75.8c-3.7,0-3.7-6.6,0-6.6h7.9V84.5c0-4.4,5.6-4.4,5.6,0v38.8
			C89.3,125.2,88.1,126.6,86.5,126.6L86.5,126.6z M111.3,126.6h-10.7c-3.7,0-3.7-6.6,0-6.6h7.9V84.5c0-4.4,5.6-4.4,5.6,0v38.8
			C114.1,125.2,112.8,126.6,111.3,126.6L111.3,126.6z M136,126.6h-10.7c-3.7,0-3.7-6.6,0-6.6h7.9V84.5c0-4.4,5.6-4.4,5.6,0v38.8
			C138.8,125.2,137.6,126.6,136,126.6L136,126.6z"/>
		<path class="st1" d="M24.1,120.6l51.6-78.8c-0.8-4.9-2.9-12.9-1.4-15l2.2-1.2h12.8c1,0,1.9,0.6,2.4,1.6c3.6,7.1,5.2,9.6,5.7,11.7
			H93c-2.6,0-5.1,1.4-6.7,3.8l-51.4,77.8L24.1,120.6L24.1,120.6z"/>
		<path class="st1" d="M85.9,198c-12.2,0-22.2-11.7-22.2-26.1c0-14.4,10-26.1,22.2-26.1s22.2,11.7,22.2,26.1
			C108.1,186.3,98.1,198,85.9,198L85.9,198z M85.9,184.9c-14.5,0-14.5-25.8,0-25.8S100.3,184.9,85.9,184.9z M85.9,165.6
			c-7,0-7,12.6,0,12.6C92.9,178.2,92.9,165.6,85.9,165.6z M210.2,198c-12.2,0-22.2-11.7-22.2-26.1c0-14.4,10-26.1,22.2-26.1
			s22.2,11.7,22.2,26.1S222.5,198,210.2,198L210.2,198z M210.2,184.9c-14.5,0-14.5-25.8,0-25.8C224.7,159,224.7,184.9,210.2,184.9z
			 M210.2,165.6c-7,0-7,12.6,0,12.6C217.3,178.2,217.3,165.6,210.2,165.6z"/>
		<polygon class="st1" points="168.3,126 160,126 160,97.5 168.2,97.5 168.3,106.4 		"/>
		<path class="st1" d="M243.7,109.6c-1.8,0-24.4-16.1-27.8-18.4c-3.2-2.2-0.4-7.9,2.8-5.7l26.4,17.9
			C247.6,105.2,246.6,109.6,243.7,109.6L243.7,109.6z"/>
		<path class="st1" d="M214.2,98c-2.1,0-3.5-2.7-2.4-5l6.2-12.6c1.9-3.8,6.7-0.5,4.9,3.3l-6.2,12.6C216.2,97.4,215.2,98,214.2,98
			L214.2,98z"/>
		<path class="st1" d="M245.5,198H12.3c-3.7,0-3.7-6.6,0-6.6h233.2C249.3,191.4,249.3,198,245.5,198z"/>
	</g>
	<g id="Layer_4">
		<circle class="st2" cx="199.4" cy="178.2" r="53.1"/>
		<g>
			<path class="st3" d="M194.5,173.4v-25.7h9.7v25.7h25.7v9.7h-25.7v25.7h-9.7V183h-25.7v-9.7L194.5,173.4L194.5,173.4z"/>
		</g>
	</g>
</g>
</svg>
