<?xml version="1.0" encoding="utf-8"?>
<!-- Generator: Adobe Illustrator 27.0.1, SVG Export Plug-In . SVG Version: 6.00 Build 0)  -->
<svg version="1.1" xmlns="http://www.w3.org/2000/svg" xmlns:xlink="http://www.w3.org/1999/xlink" x="0px" y="0px"
	 viewBox="0 0 256 256" style="enable-background:new 0 0 256 256;" xml:space="preserve">
<style type="text/css">
	.st0{display:none;}
	.st1{display:inline;}
	.st2{fill:#FFFFFF;}
	.st3{fill:#010101;}
	.st4{fill-rule:evenodd;clip-rule:evenodd;}
	.st5{fill:#00733B;}
</style>
<g id="Layer_3" class="st0">
	<g class="st1">
		<path class="st2" d="M185.4,227.1H70.6c-4.1,0-7.4-3.3-7.4-7.4V62.3c0-4.1,3.3-7.4,7.4-7.4h114.8c4.1,0,7.4,3.3,7.4,7.4v157.4
			C192.8,223.8,189.5,227.1,185.4,227.1z"/>
		<path class="st3" d="M180.6,47.4h-5.3c-0.1,0.6-0.1,1.2-0.3,1.9l0,0c0,0.4-0.1,0.8-0.2,1.2l0,0c-0.1,0.5-0.2,1.1-0.4,1.6
			c-0.2,0.8-0.5,1.6-0.8,2.3c-0.3,0.9-0.8,1.8-1.3,2.7h8.3c4.9,0,8.9,4,8.9,8.9v149.8c0,4.9-4,8.9-8.9,8.9H75.4
			c-4.9,0-8.9-4-8.9-8.9V66.1c0-4.9,4-8.9,8.9-8.9h8.3c-1.3-2.2-2.1-4.5-2.5-6.6l0,0c-0.1-0.4-0.2-0.8-0.2-1.2
			c-0.1-0.7-0.2-1.3-0.3-1.9h-5.3c-10.3-0.1-18.7,8.3-18.7,18.6v149.8c0,10.3,8.4,18.7,18.7,18.7h105.2c10.3,0,18.7-8.4,18.7-18.7
			V66.1C199.3,55.8,190.9,47.4,180.6,47.4z"/>
		<g>
			<g>
				<path class="st3" d="M170.4,41.9l-0.7-4.1h-24c0-0.2,0-0.3,0-0.5c0-1.5-0.2-3-0.7-4.3c-2.1-6.7-8.9-11.6-17.1-11.6
					c-8.1,0-14.9,4.9-17.1,11.6c-0.4,1.4-0.7,2.8-0.7,4.3c0,0.2,0,0.3,0,0.5h-24l-0.4,4.1c0,0.4-0.4,2.6,0,5.5
					c0,0.4,0.1,0.7,0.1,1.1c0,0.3,0.1,0.7,0.2,1c0.5,2.4,1.6,5.1,3.6,7.6c0.1,0,0.1,0.1,0.1,0.2c3.9,4.6,10,7,18.1,7h40.4
					c8.1,0,14.2-2.3,18.1-7c0,0,0.1-0.1,0.1-0.2c1.1-1.4,2-2.9,2.6-4.3c0.2-0.5,0.4-1,0.5-1.5c0.2-0.6,0.3-1.3,0.5-1.9
					c0.1-0.3,0.1-0.7,0.2-1c0-0.4,0.1-0.7,0.1-1.1C170.8,44.5,170.4,42.3,170.4,41.9z M122.4,32.9c1.5-1.1,3.5-1.8,5.6-1.8
					s4.2,0.7,5.6,1.8c1.4,1.2,2.3,2.7,2.3,4.3c0,0.2,0,0.4,0,0.5c-0.2,2.1-1.9,3.9-4.2,4.9c-1.1,0.5-2.4,0.8-3.8,0.8
					c-1.4,0-2.6-0.3-3.8-0.8c-2.3-1-3.9-2.8-4.2-4.9c0-0.1,0-0.3,0-0.5C120.1,35.6,121,34.1,122.4,32.9z"/>
			</g>
		</g>
	</g>
</g>
<g id="Layer_6">
	<path class="st4" d="M243.8,109.6h-67.1c-1.5,0-2.8-1.4-2.8-3.3l-0.8-49.9c0-1.9,1.2-3.4,2.8-3.4h53.9c1.2,0,2.3,0.9,2.7,2.3
		l14.1,51C246.6,108.2,245.3,109.6,243.8,109.6L243.8,109.6z M179.5,103h60.4l-12-43.3l-49,0L179.5,103L179.5,103z"/>
	<path class="st4" d="M243.7,157H235c-4.6-10.5-14-17.8-24.8-17.8c-10.8,0-20.1,7.2-24.8,17.8h-8.7c-1.6,0-2.8-1.5-2.8-3.3v-47.4
		c0-1.8,1.3-3.3,2.8-3.3h67c1.6,0,2.8,1.5,2.8,3.3v47.4C246.5,155.5,245.3,157,243.7,157L243.7,157z M201,121.8h-14.7
		c-3.7,0-3.7-6.6,0-6.6H201C204.7,115.2,204.7,121.8,201,121.8z M59.9,183.8H28.4c-8.1,0-10.7-8.6-13.8-15.1L8,155.3
		c-1.1-2.2,0.3-5,2.4-5l54.5,0c-4.3,5.8-6.9,13.3-6.9,21.6C58,176.1,58.7,180.1,59.9,183.8L59.9,183.8z"/>
	<path class="st4" d="M184.3,183.8h-72.5c1.2-3.7,1.9-7.7,1.9-11.9c0-8.3-2.6-15.8-6.9-21.6l82.5,0c-4.3,5.8-6.9,13.3-6.9,21.6
		C182.4,176.1,183.1,180.1,184.3,183.8L184.3,183.8z M231.1,150.4l12.6,0c1.6,0,2.8,1.5,2.8,3.3v13.4c0,7.6-4.3,14-10.2,16
		c1.1-3.5,1.7-7.3,1.7-11.2C238.1,163.7,235.4,156.1,231.1,150.4L231.1,150.4z M71.8,143.7l-61.3,0c-1,0-2,0.2-2.8,0.6v-13.8
		c0-1.8,1.3-3.3,2.8-3.3h27.2l53.1-80.4c0.5-0.8,1.4-1.3,2.2-1.3h58.4c1.6,0,2.8,1.5,2.8,3.3v94.8l-54.3,0c-4.1-2.9-9-4.5-14.1-4.5
		C80.7,139.2,75.9,140.9,71.8,143.7L71.8,143.7z M86.5,126.6H75.8c-3.7,0-3.7-6.6,0-6.6h7.9V84.5c0-4.4,5.6-4.4,5.6,0v38.8
		C89.3,125.2,88.1,126.6,86.5,126.6L86.5,126.6z M111.3,126.6h-10.7c-3.7,0-3.7-6.6,0-6.6h7.9V84.5c0-4.4,5.6-4.4,5.6,0v38.8
		C114.1,125.2,112.8,126.6,111.3,126.6L111.3,126.6z M136,126.6h-10.7c-3.7,0-3.7-6.6,0-6.6h7.9V84.5c0-4.4,5.6-4.4,5.6,0v38.8
		C138.8,125.2,137.6,126.6,136,126.6L136,126.6z"/>
	<path class="st4" d="M24.1,120.6l51.6-78.8c-0.8-4.9-2.9-12.9-1.4-15l2.2-1.2l12.8,0c1,0,1.9,0.6,2.4,1.6c3.6,7.1,5.2,9.6,5.7,11.7
		H93c-2.6,0-5.1,1.4-6.7,3.8l-51.4,77.8L24.1,120.6L24.1,120.6z"/>
	<path class="st4" d="M85.9,198c-12.2,0-22.2-11.7-22.2-26.1c0-14.4,10-26.1,22.2-26.1c12.2,0,22.2,11.7,22.2,26.1
		C108.1,186.3,98.1,198,85.9,198L85.9,198z M85.9,184.9c-14.5,0-14.5-25.8,0-25.8S100.3,184.9,85.9,184.9z M85.9,165.6
		c-7,0-7,12.6,0,12.6C92.9,178.2,92.9,165.6,85.9,165.6z M210.2,198c-12.2,0-22.2-11.7-22.2-26.1c0-14.4,10-26.1,22.2-26.1
		c12.2,0,22.2,11.7,22.2,26.1C232.4,186.3,222.5,198,210.2,198L210.2,198z M210.2,184.9c-14.5,0-14.5-25.8,0-25.8
		C224.7,159,224.7,184.9,210.2,184.9z M210.2,165.6c-7,0-7,12.6,0,12.6C217.3,178.2,217.3,165.6,210.2,165.6z"/>
	<polygon class="st4" points="168.3,126 160,126 160,97.5 168.2,97.5 168.3,106.4 	"/>
	<path class="st4" d="M243.7,109.6c-1.8,0-24.4-16.1-27.8-18.4c-3.2-2.2-0.4-7.9,2.8-5.7l26.4,17.9
		C247.6,105.2,246.6,109.6,243.7,109.6L243.7,109.6z"/>
	<path class="st4" d="M214.2,98c-2.1,0-3.5-2.7-2.4-5l6.2-12.6c1.9-3.8,6.7-0.5,4.9,3.3l-6.2,12.6C216.2,97.4,215.2,98,214.2,98
		L214.2,98z"/>
	<path class="st4" d="M245.5,198H12.3c-3.7,0-3.7-6.6,0-6.6h233.2C249.3,191.4,249.3,198,245.5,198z"/>
</g>
<g id="Layer_4">
	<circle class="st5" cx="199.4" cy="178.2" r="53.1"/>
	<g>
		<path class="st2" d="M194.5,173.4v-25.7h9.7v25.7h25.7v9.7h-25.7v25.7h-9.7V183h-25.7v-9.7H194.5z"/>
	</g>
</g>
</svg>
