<?xml version="1.0" encoding="utf-8"?>
<!-- Generator: Adobe Illustrator 27.4.0, SVG Export Plug-In . SVG Version: 6.00 Build 0)  -->
<svg version="1.1" id="Layer_1" xmlns="http://www.w3.org/2000/svg" xmlns:xlink="http://www.w3.org/1999/xlink" x="0px" y="0px"
	 viewBox="0 0 24 24" style="enable-background:new 0 0 24 24;" xml:space="preserve">
<style type="text/css">
	.st0{fill-rule:evenodd;clip-rule:evenodd;}
</style>
<g id="Layer_6">
	<path class="st0" d="M22.9,11.8h-6.3c-0.1,0-0.3-0.1-0.3-0.3l-0.1-4.7c0-0.2,0.1-0.3,0.3-0.3h5.1c0.1,0,0.2,0.1,0.3,0.2l1.3,4.8
		C23.2,11.7,23.1,11.8,22.9,11.8L22.9,11.8z M16.9,11.2h5.7l-1.1-4.1h-4.6L16.9,11.2L16.9,11.2z"/>
	<path class="st0" d="M22.9,16.3h-0.8c-0.4-1-1.3-1.7-2.3-1.7s-1.9,0.7-2.3,1.7h-0.8c-0.2,0-0.3-0.1-0.3-0.3v-4.5
		c0-0.2,0.1-0.3,0.3-0.3h6.3c0.2,0,0.3,0.1,0.3,0.3V16C23.2,16.1,23.1,16.3,22.9,16.3L22.9,16.3z M18.9,12.9h-1.4
		c-0.3,0-0.3-0.6,0-0.6h1.4C19.2,12.3,19.2,12.9,18.9,12.9z M5.6,18.8h-3c-0.8,0-1-0.8-1.3-1.4l-0.6-1.3c-0.1-0.2,0-0.5,0.2-0.5H6
		c-0.4,0.5-0.7,1.3-0.7,2C5.4,18.1,5.5,18.5,5.6,18.8L5.6,18.8z"/>
	<path class="st0" d="M17.3,18.8h-6.9c0.1-0.3,0.2-0.7,0.2-1.1c0-0.8-0.2-1.5-0.7-2h7.8c-0.4,0.5-0.7,1.3-0.7,2
		C17.1,18.1,17.2,18.5,17.3,18.8L17.3,18.8z M21.7,15.6h1.2c0.2,0,0.3,0.1,0.3,0.3v1.3c0,0.7-0.4,1.3-1,1.5c0.1-0.3,0.2-0.7,0.2-1.1
		C22.4,16.9,22.1,16.2,21.7,15.6L21.7,15.6z M6.7,15H0.9c-0.1,0-0.2,0-0.3,0.1v-1.3c0-0.2,0.1-0.3,0.3-0.3h2.6l5-7.6
		c0-0.1,0.1-0.1,0.2-0.1h5.5c0.2,0,0.3,0.1,0.3,0.3v9H9.3C9,14.7,8.5,14.6,8,14.6C7.5,14.6,7.1,14.7,6.7,15L6.7,15z M8.1,13.4h-1
		c-0.3,0-0.3-0.6,0-0.6h0.7V9.4c0-0.4,0.5-0.4,0.5,0v3.7C8.3,13.3,8.2,13.4,8.1,13.4L8.1,13.4z M10.4,13.4h-1c-0.3,0-0.3-0.6,0-0.6
		h0.7V9.4c0-0.4,0.5-0.4,0.5,0v3.7C10.7,13.3,10.6,13.4,10.4,13.4L10.4,13.4z M12.8,13.4h-1c-0.3,0-0.3-0.6,0-0.6h0.7V9.4
		C12.5,9,13,9,13,9.4v3.7C13,13.3,12.9,13.4,12.8,13.4L12.8,13.4z"/>
	<path class="st0" d="M2.2,12.8l4.9-7.4C7,4.9,6.8,4.2,6.9,4l0.2-0.1h1.2c0.1,0,0.2,0.1,0.2,0.2c0.3,0.7,0.5,0.9,0.5,1.1H8.7
		c-0.2,0-0.5,0.1-0.6,0.4l-4.9,7.4L2.2,12.8L2.2,12.8z"/>
	<path class="st0" d="M8,20.1c-1.2,0-2.1-1.1-2.1-2.5c0-1.4,0.9-2.5,2.1-2.5s2.1,1.1,2.1,2.5C10.1,19,9.2,20.1,8,20.1L8,20.1z
		 M8,18.9c-1.4,0-1.4-2.4,0-2.4S9.4,18.9,8,18.9z M8,17.1c-0.7,0-0.7,1.2,0,1.2C8.7,18.3,8.7,17.1,8,17.1z M19.8,20.1
		c-1.2,0-2.1-1.1-2.1-2.5c0-1.4,0.9-2.5,2.1-2.5s2.1,1.1,2.1,2.5C21.9,19,20.9,20.1,19.8,20.1L19.8,20.1z M19.8,18.9
		c-1.4,0-1.4-2.4,0-2.4C21.1,16.5,21.1,18.9,19.8,18.9z M19.8,17.1c-0.7,0-0.7,1.2,0,1.2C20.4,18.3,20.4,17.1,19.8,17.1z"/>
	<polygon class="st0" points="15.8,13.3 15,13.3 15,10.6 15.8,10.6 15.8,11.5 	"/>
	<path class="st0" d="M22.9,11.8c-0.2,0-2.3-1.5-2.6-1.7c-0.3-0.2,0-0.7,0.3-0.5l2.5,1.7C23.3,11.4,23.2,11.8,22.9,11.8L22.9,11.8z"
		/>
	<path class="st0" d="M20.1,10.7c-0.2,0-0.3-0.3-0.2-0.5L20.5,9c0.2-0.4,0.6,0,0.5,0.3l-0.6,1.2C20.3,10.6,20.2,10.7,20.1,10.7
		L20.1,10.7z"/>
	<path class="st0" d="M23.1,20.1h-22c-0.3,0-0.3-0.6,0-0.6h22C23.5,19.5,23.5,20.1,23.1,20.1z"/>
</g>
</svg>
