<?xml version="1.0" encoding="utf-8"?>
<!-- Generator: Adobe Illustrator 27.4.0, SVG Export Plug-In . SVG Version: 6.00 Build 0)  -->
<svg version="1.1" id="Layer_2" xmlns="http://www.w3.org/2000/svg" xmlns:xlink="http://www.w3.org/1999/xlink" x="0px" y="0px"
	 viewBox="0 0 256 256" style="enable-background:new 0 0 256 256;" xml:space="preserve">
<path d="M134.3,87.1c-14-3.6-28.3,4.8-32,18.8c-0.7,2.8,1,5.7,3.8,6.4s5.7-1,6.4-3.8c1.3-5.2,5.2-9.3,10.3-11
	c8.3-2.8,17.2,1.7,19.9,10c2.8,8.3-1.7,17.2-10,19.9c-6.3,2.4-10.5,8.5-10.3,15.2v6.6c0,2.9,2.4,5.2,5.2,5.2h0
	c2.9,0,5.2-2.4,5.2-5.2v-6.6c-0.1-2.3,1.1-4.4,3.2-5.3c8.4-2.8,14.8-9.7,17-18.3C156.7,105.1,148.3,90.7,134.3,87.1z M127.6,163.7
	c-3.6,0-6.6,2.9-6.6,6.6s2.9,6.6,6.6,6.6c3.6,0,6.6-2.9,6.6-6.6S131.3,163.7,127.6,163.7z M128,23C70,23,23,70,23,128
	s47,105,105,105c58-0.1,104.9-47,105-105C233,70,186,23,128,23z M128,222.5c-52.2,0-94.5-42.3-94.5-94.5S75.8,33.5,128,33.5
	c52.2,0.1,94.4,42.3,94.5,94.5C222.5,180.2,180.2,222.5,128,222.5z"/>
</svg>
