<?xml version="1.0" encoding="utf-8"?>
<!-- Generator: Adobe Illustrator 27.4.0, SVG Export Plug-In . SVG Version: 6.00 Build 0)  -->
<svg version="1.1" id="Layer_1" xmlns="http://www.w3.org/2000/svg" xmlns:xlink="http://www.w3.org/1999/xlink" x="0px" y="0px"
	 viewBox="0 0 256 256" style="enable-background:new 0 0 256 256;" xml:space="preserve">
<style type="text/css">
	.st0{fill:#FFFFFF;stroke:#000000;stroke-width:14;stroke-miterlimit:10;}
</style>
<path class="st0" d="M20.4,37.7c-1,0.5-2.6,1.6-3.4,2.5c-3.2,3.4-3-3.5-3,87.8s-0.2,84.4,3,87.8c0.9,0.9,2.4,2,3.4,2.5
	c1.9,0.9,5.7,0.9,107.6,0.9s105.7,0,107.6-0.9c1-0.5,2.6-1.6,3.4-2.5c3.2-3.4,3,3.5,3-87.9c0-79.7,0-82.9-0.9-84.7
	c-1.1-2.3-3.5-4.7-5.8-5.7c-1.6-0.7-13-0.8-107.3-0.8C26.1,36.8,22.3,36.9,20.4,37.7z"/>
<path d="M68.4,92.2c-1.7,0.4-3.1,0.8-3.2,0.9c-0.3,0.2,1.7,6.5,2.2,7.1c0.2,0.2,1.7,0.1,3.4-0.2c3.5-0.7,7.9-0.1,10.9,1.4l1.9,0.9
	l1.1-1.8c1.5-2.3,2.7-4.7,2.7-5.2c0-0.7-4.5-2.5-8-3.2C75.5,91.3,72.4,91.3,68.4,92.2z"/>
<path d="M45.3,109.2c-7,7.2-8.8,9.9-10.4,15.3c-1.2,4.2-1.1,10.9,0.2,15.3c1.2,3.9,0.6,3.8,5.9,1.4c1.5-0.7,2.7-1.3,2.7-1.4
	s-0.3-0.9-0.7-1.8c-1-2.5-1.3-6.2-0.8-9.2c0.9-4.7,2.5-7.2,9.4-14.1c3.5-3.5,6.4-6.6,6.4-6.9c0-0.7-4.9-5.5-5.5-5.5
	C52.1,102.4,48.9,105.5,45.3,109.2z"/>
<path d="M92.4,105.1c-1.6,1.2-2.8,2.3-2.8,2.5c0,0.2,0.6,1.6,1.3,3.1c1.6,3.3,2.1,6.6,1.6,10.5c-0.6,4.7-2.3,7.5-8.5,13.8l-5.6,5.7
	l2.9,2.8l2.8,2.8l6.1-6.2c6.4-6.5,8.2-9.2,9.8-14.6c0.9-3.2,1-9.9,0.2-13.4c-0.7-3-3.7-9.3-4.4-9.2
	C95.5,102.9,93.9,103.9,92.4,105.1z"/>
<path d="M70.8,107.3c-0.9,0.2-2.3,0.9-3.1,1.4c-2,1.4-9.7,9-9.7,9.6s4.8,5.5,5.5,5.5c0.2,0,2.5-2,5-4.5c2.7-2.7,4.9-4.5,5.5-4.5
	c0.5,0,1.5,0.4,2.2,1c1.3,1,1.7,3,0.8,4.7c-0.4,0.7,0,1.4,2.3,3.6c3.2,3.1,3.5,3.1,5.2-0.4c1.5-3,1.4-7.5-0.2-10.6
	C81.9,108.2,76.1,105.7,70.8,107.3z"/>
<path d="M50.9,125.5c-5.1,7.9,0.4,17.8,9.8,17.8c4.3,0,6.1-1,11.7-6.6l4.7-4.7l-2.8-2.8l-2.8-2.8l-4.6,4.5c-4,4-4.7,4.5-6.3,4.5
	c-1.3,0-1.9-0.3-2.7-1.2c-1.2-1.5-1.2-2.5-0.3-3.8c0.7-0.8,0.5-1.1-2-3.7c-1.5-1.5-2.9-2.7-3.2-2.7
	C52.2,123.8,51.5,124.5,50.9,125.5z"/>
<path d="M68.2,148.9c-3.1,1.6-9.5,2-12.9,0.9c-1.2-0.4-2.3-0.8-2.4-0.8c-0.2,0-3.5,7.2-3.4,7.4c0.1,0.1,1.2,0.5,2.5,0.9
	c3,1.1,11.1,1.5,14.5,0.8c2.8-0.6,9-3.3,9-3.9c0-0.7-4-6.6-4.5-6.5C70.8,147.6,69.5,148.2,68.2,148.9z"/>
<g>
	<path d="M142.9,81.5c5.6-0.9,12.8-1.7,22.1-1.7c11.4,0,19.7,2.6,25,7.4c4.9,4.2,7.8,10.7,7.8,18.6c0,8.1-2.4,14.4-6.9,19
		c-6.1,6.5-16,9.8-27.2,9.8c-3.4,0-6.6-0.1-9.3-0.8v35.7h-11.5V81.5z M154.4,124.4c2.5,0.7,5.7,0.9,9.5,0.9c13.9,0,22.3-6.7,22.3-19
		c0-11.8-8.3-17.5-21-17.5c-5,0-8.9,0.4-10.8,0.9V124.4z"/>
</g>
</svg>
