<?xml version="1.0" encoding="utf-8"?>
<!-- Generator: Adobe Illustrator 27.4.0, SVG Export Plug-In . SVG Version: 6.00 Build 0)  -->
<svg version="1.1" id="Layer_2" xmlns="http://www.w3.org/2000/svg" xmlns:xlink="http://www.w3.org/1999/xlink" x="0px" y="0px"
	 viewBox="0 0 256 256" style="enable-background:new 0 0 256 256;" xml:space="preserve">
<style type="text/css">
	.st0{fill:#FFFFFF;}
</style>
<g>
	<path class="st0" d="M220.8,126.7h-53.5c-1.2,0-2.2-1.1-2.2-2.6l-0.6-39.8c0-1.5,1-2.7,2.2-2.7h43c1,0,1.8,0.7,2.2,1.8l11.2,40.7
		C223.1,125.6,222,126.7,220.8,126.7L220.8,126.7z M169.5,121.5h48.2l-9.6-34.5h-39.1L169.5,121.5L169.5,121.5z"/>
	<path class="st0" d="M220.7,164.5h-6.9c-3.7-8.4-11.2-14.2-19.8-14.2s-16,5.7-19.8,14.2h-6.9c-1.3,0-2.2-1.2-2.2-2.6v-37.8
		c0-1.4,1-2.6,2.2-2.6h53.4c1.3,0,2.2,1.2,2.2,2.6v37.8C223,163.4,222,164.5,220.7,164.5L220.7,164.5z M186.7,136.5H175
		c-3,0-3-5.3,0-5.3h11.7C189.6,131.2,189.6,136.5,186.7,136.5z M74.2,185.9H49c-6.5,0-8.5-6.9-11-12l-5.3-10.7c-0.9-1.8,0.2-4,1.9-4
		h43.5c-3.4,4.6-5.5,10.6-5.5,17.2C72.6,179.8,73.2,183,74.2,185.9L74.2,185.9z"/>
	<path class="st0" d="M173.4,185.9h-57.8c1-3,1.5-6.1,1.5-9.5c0-6.6-2.1-12.6-5.5-17.2h65.8c-3.4,4.6-5.5,10.6-5.5,17.2
		C171.9,179.8,172.4,183,173.4,185.9L173.4,185.9z"/>
	<path class="st0" d="M210.7,159.3h10c1.3,0,2.2,1.2,2.2,2.6v10.7c0,6.1-3.4,11.2-8.1,12.8c0.9-2.8,1.4-5.8,1.4-8.9
		C216.3,169.9,214.1,163.8,210.7,159.3L210.7,159.3z"/>
	<path class="st0" d="M147.1,75.6h-46.6c-0.6,0-1.4,0.4-1.8,1l-42.4,64.1H34.8c-1.2,0-2.2,1.2-2.2,2.6v11c0.6-0.3,1.4-0.5,2.2-0.5
		h48.9c3.3-2.2,7.1-3.6,11.2-3.7c4.1,0,8,1.3,11.2,3.6h43.3V78.3C149.4,76.8,148.4,75.6,147.1,75.6z M97.6,137.7
		c0,1.5-1,2.6-2.2,2.6h-8.5c-3,0-3-5.3,0-5.3h6.3v-28.3c0-3.5,4.5-3.5,4.5,0V137.7z M117.4,137.7c0,1.5-1,2.6-2.2,2.6h-8.5
		c-3,0-3-5.3,0-5.3h6.3v-28.3c0-3.5,4.5-3.5,4.5,0V137.7z M137.1,137.7c0,1.5-1,2.6-2.2,2.6h-8.5c-3,0-3-5.3,0-5.3h6.3v-28.3
		c0-3.5,4.5-3.5,4.5,0V137.7z"/>
	<path class="st0" d="M45.6,135.5l41.2-62.8c-0.6-3.9-2.3-10.3-1.1-12l1.8-1h10.2c0.8,0,1.5,0.5,1.9,1.3c2.9,5.7,4.1,7.7,4.5,9.3
		h-3.5c-2.1,0-4.1,1.1-5.3,3l-41,62.1L45.6,135.5L45.6,135.5z"/>
	<path class="st0" d="M94.9,155.6c-9.7,0-17.7,9.3-17.7,20.8c0,11.5,8,20.8,17.7,20.8s17.7-9.3,17.7-20.8
		C112.6,164.9,104.6,155.6,94.9,155.6z M94.9,186.8c-11.6,0-11.6-20.6,0-20.6S106.4,186.8,94.9,186.8z"/>
	<path class="st0" d="M194,155.6c-9.7,0-17.7,9.3-17.7,20.8c0,11.5,8,20.8,17.7,20.8c9.8,0,17.7-9.3,17.7-20.8
		C211.7,164.9,203.8,155.6,194,155.6z M194,186.8c-11.6,0-11.6-20.6,0-20.6C205.6,166.1,205.6,186.8,194,186.8z"/>
	<polygon class="st0" points="160.6,139.8 154,139.8 154,117.1 160.5,117.1 160.6,124.2 	"/>
	<path class="st0" d="M220.7,126.7c-1.4,0-19.5-12.8-22.2-14.7c-2.6-1.8-0.3-6.3,2.2-4.5l21.1,14.3
		C223.9,123.2,223.1,126.7,220.7,126.7L220.7,126.7z"/>
	<path class="st0" d="M197.2,117.5c-1.7,0-2.8-2.2-1.9-4l4.9-10c1.5-3,5.3-0.4,3.9,2.6l-4.9,10C198.8,117,198,117.5,197.2,117.5
		L197.2,117.5z"/>
	<path class="st0" d="M222.2,197.2h-186c-3,0-3-5.3,0-5.3h186C225.2,192,225.2,197.2,222.2,197.2z"/>
</g>
</svg>
