<?xml version="1.0" encoding="utf-8"?>
<!-- Generator: Adobe Illustrator 27.4.0, SVG Export Plug-In . SVG Version: 6.00 Build 0)  -->
<svg version="1.1" id="Layer_1" xmlns="http://www.w3.org/2000/svg" xmlns:xlink="http://www.w3.org/1999/xlink" x="0px" y="0px"
	 viewBox="0 0 512 512" style="enable-background:new 0 0 512 512;" xml:space="preserve">
<style type="text/css">
	.st0{stroke:#FFFFFF;stroke-miterlimit:10;}
	.st1{fill:#FFFFFF;stroke:#000000;stroke-width:24;stroke-miterlimit:10;}
	.st2{fill:#FFFFFF;stroke:#000000;stroke-width:6;stroke-miterlimit:10;}
	.st3{fill:#FFFFFF;stroke:#FFFFFF;stroke-width:6;stroke-miterlimit:10;}
	.st4{stroke:#000000;stroke-width:2;stroke-miterlimit:10;}
</style>
<path class="st0" d="M352,33c-21.7,1.6-41.9,3.3-44.8,3.9c-8.2,1.6-17,6.3-25.2,13.4C267.6,62.8,10.4,321.3,7.1,326.8
	c-9.4,15-9.6,36.2-0.6,51.9c3.6,6.3,86.9,90,94.9,95.4c14.9,10,37.2,10.7,52.6,1.7c1.9-1.2,54.1-52.7,116-114.5L382.6,249l3.8,5
	c14.3,18.8,34.9,30,54.9,30c11.2-0.1,16.1-1.1,25.2-5.5c21.8-10.4,38.4-37.4,44-71.3c2.4-14.2,1.6-44.2-1.4-58.4
	c-7.8-36.1-27.5-67.2-51.3-81.1c-6.1-3.5-6.8-4.3-8.7-9.5c-4-11-13.9-20.9-25.1-25.4C415.9,29.6,398.9,29.6,352,33z"/>
<path class="st1" d="M416.1,46.7c3.6,1.2,7,3.4,10.8,7l5.6,5.2l-6,0.1c-11.1,0.1-22.4,3.8-33,11c-3.5,2.3-4.5,2.5-8,1.8
	c-2.2-0.5-6.7-0.7-9.9-0.4c-11.1,1.1-19.7,7.1-24.7,17.1c-7.7,15.6-2,33.6,13.2,42c4.9,2.7,6.2,3,14.9,3c8.6,0,10-0.3,14.8-2.9
	c15.1-8.4,20.9-26.7,13.2-42.2c-1.8-3.6-3-6.7-2.8-6.8c0.1-0.2,2.6-1.5,5.4-2.9c6.1-3.1,15-4.7,21.7-4l4.7,0.6v5.1
	c0,2.8-1.3,24-2.9,47.1c-3,43.2-3.7,47.6-8.4,55.5c-1.1,1.9-63.5,65.1-138.6,140.3C137,472.6,145.1,465.1,131.9,466.6
	c-6.5,0.7-15-1.4-20.8-5.1c-2-1.3-23.5-22.3-47.7-46.7C14,365.2,15.5,367.2,15.5,353c0-15.1-10.6-3.5,144.2-158.1
	C266.7,88.1,298.5,56.8,302.1,55.1c7.2-3.4,12.6-4,56.9-7C409.9,44.6,409.6,44.6,416.1,46.7z"/>
<path class="st2" d="M465.2,94c14.6,16.5,24.9,38.7,29.4,63.5c2.9,15.7,2.5,39.8-0.8,54c-6.3,26.7-18.3,44.7-35.4,53.2
	c-7.3,3.5-8.4,3.8-16.3,3.7c-9.7-0.1-15.5-1.8-24.2-7c-6.5-3.9-16.1-12.8-20.7-19.3l-3.2-4.4l21.7-22.1
	c23.2-23.5,25.6-26.9,28.7-39.1c0.9-3.5,2.6-22.2,4.1-44.5c1.3-21.2,2.7-40.9,3.1-43.8l0.5-5.2l4.6,3.2C459.2,88,463,91.5,465.2,94z
	"/>
<path class="st3" d="M394,97.6c2.7,8.2-1.4,16.9-9.5,20c-2.5,0.9-4.8,1.4-5.2,1.1C377.8,117.2,389.8,94,392,94
	C392.5,94,393.4,95.6,394,97.6z"/>
<path class="st4" d="M250.1,169.3c-17.6,17.5-19.8,20.1-19.8,22.3c0,3.8,2.4,6.2,5.9,6.2c2.6,0,3.7-0.8,10.5-7.5l7.6-7.6l28.7,28.7
	c27.4,27.4,28.8,28.6,31.6,28.6c4.1,0,6.1-2,6.1-6.1c0-3.3-0.2-3.4-28.9-31.7l-28.9-28.4l7.7-7.6c7-6.9,7.7-7.8,7.7-10.6
	c0-2.2-0.5-3.4-2.1-4.6C271.7,147.8,271.3,148.1,250.1,169.3z"/>
<path class="st4" d="M197.1,222.4c-1.5,1.2-2.1,2.4-2.1,4.3c0,3.5,36.2,87.4,38.6,89.4c3.5,3,10.2,0.2,10.2-4.4c0-1-2.7-8-6-15.4
	l-5.9-13.6l12.2-12.2l12.2-12.3l13.2,5.7c7.2,3.1,13.9,5.7,15,5.7c4.5,0,7.3-6.7,4.3-10.2c-1.5-1.7-85.8-38.6-88.2-38.6
	C199.8,220.7,198.3,221.5,197.1,222.4z M228.6,246c7.7,3.4,14.2,6.3,14.6,6.6c0.3,0.3-3.3,4.4-8,9.1l-8.6,8.6l-5.5-12.6
	c-7.6-17.7-7.7-17.8-7-17.8C214.3,239.9,220.9,242.7,228.6,246z"/>
<path class="st4" d="M162.5,257.7c-2.2,1-3.4,4.3-2.6,7.1c0.3,1.1,7,17.4,14.8,36.2c7.8,18.8,14.1,34.3,13.9,34.4
	c-0.2,0.2-16.2-6.3-35.5-14.4c-19.8-8.2-36.3-14.6-37.8-14.7c-5,0-7.7,6.8-4.1,10.2c2.6,2.4,86.9,37.3,90.2,37.3
	c3.2,0.1,5.7-2.5,5.7-5.8c0-3.2-35.6-88.2-37.7-89.9C167.4,256.6,165.1,256.4,162.5,257.7z"/>
</svg>
