<?xml version="1.0" encoding="utf-8"?>
<!-- Generator: Adobe Illustrator 27.4.0, SVG Export Plug-In . SVG Version: 6.00 Build 0)  -->
<svg version="1.1" id="Layer_1" xmlns="http://www.w3.org/2000/svg" xmlns:xlink="http://www.w3.org/1999/xlink" x="0px" y="0px"
	 viewBox="0 0 256 256" style="enable-background:new 0 0 256 256;" xml:space="preserve">
<style type="text/css">
	.st0{fill:#FFFFFF;stroke:#000000;stroke-width:14;stroke-miterlimit:10;}
	.st1{fill:#FFFFFF;stroke:#000000;stroke-width:7.2022;stroke-miterlimit:10;}
	.st2{stroke:#000000;stroke-width:2;stroke-miterlimit:10;}
	.st3{fill:#FFFFFF;stroke:#007337;stroke-miterlimit:10;}
	.st4{stroke:#000000;stroke-miterlimit:10;}
	.st5{stroke:#FFFFFF;stroke-miterlimit:10;}
	.st6{fill:#FFFFFF;stroke:#000000;stroke-width:6;stroke-miterlimit:10;}
	.st7{clip-path:url(#SVGID_00000049912377610765741200000002882878377856660925_);}
</style>
<path class="st0" d="M215.6,235.3h-175c-1.6,0-3.3-1.3-3.3-3.3v-41c0-21.3,10.5-37,29.5-44.6c7.2-2.9,13.1-5.2,19.7-6.9l0.7-0.3
	c5.6-1.6,10.2-3.6,13.8-5.9c3.9-2.3,6.6-4.9,8.2-7.9c0.7-1.6,2.6-2.3,4.3-1.3c1.6,0.7,2.3,2.6,1.3,4.3c-2,3.9,28.1,3.6,26.1-0.3
	c-0.7-1.6-0.3-3.3,1.3-4.3c1.6-0.7,3.3-0.3,4.3,1.3c1.3,2.9,4.3,5.6,8.2,7.9c3.6,2.3,8.2,4.3,13.8,5.9l1,0.3
	c6.6,2,12.5,4.3,19.7,6.9c19,7.5,29.5,23.3,29.5,44.6v41C218.6,234,217.3,235.3,215.6,235.3z"/>
<path class="st1" d="M127.3,137.5c-3.9,0-8.2-1.4-11.8-4.2c-2-1.4-3.9-3.3-5.9-5.6c-1.6-1.9-2.9-3.3-4.6-5.6
	c-5.2-7.1-9.5-15.6-13.1-25.5c-4.3-12.2-6.9-25.9-7.2-40.2c0,0,79.3-4.2,81.3-4.2c1.6,0,2.9,2.3,2.9,4.8
	c-0.3,14.1-2.9,27.8-7.2,40.2c-3.3,9.5-7.9,18.4-13.1,25.5c-1.3,1.9-2.9,3.7-4.6,5.6c-2,2.3-3.9,3.7-5.9,5.6
	C135.4,136.1,131.1,137.5,127.3,137.5z"/>
<path class="st2" d="M157.9,73.6c-3.6,0-7.5-1-11.8-2.9c-1.6-0.3-11.5-2.9-19-2.9c-7.5,0-17.4,2.6-18.7,2.9
	c-8.5,3.6-15.1,3.9-19.7,0.7c-5.6-3.9-6.2-10.8-6.2-12.1c0-0.3-0.3-2-0.3-4.3c0-2,0-3.9,0.3-5.9C79,45.8,77,42.2,77,38.3
	c0-13.1,21.6-22.6,50.1-22.6s50.1,9.8,50.1,22.6c0,3.9-2,7.5-5.6,10.8c0.7,5.2,0.3,9.2,0,10.2c0,1.3-0.7,8.5-6.2,12.1
	C163.6,73,160.9,73.6,157.9,73.6z"/>
<path class="st3" d="M127.1,61.5c8.8,0,20.3,3.3,20.6,3.3h0.3c6.2,2.6,11.1,3.3,14.1,1.3c3.3-2.3,3.3-7.2,3.3-7.2v-0.3
	c0,0,0.7-4.6-0.3-10.5c0-1,0.3-2.3,1.3-2.9c2-1.6,4.6-3.9,4.6-6.9c0-7.9-18-16.4-43.9-16.4s-43.9,8.8-43.9,16.4
	c0,2.9,2.3,5.2,4.6,6.9c1,0.7,1.3,1.6,1.3,2.9c-0.3,2-0.3,4.3-0.3,6.6s0,3.6,0,3.9v0.3c0,0,0,4.9,3.3,7.2c2.9,2,7.9,1.3,14.1-1.3
	h0.3C106.9,64.5,118.4,61.5,127.1,61.5z"/>
<g>
	<path class="st4" d="M126.8,45.6c-3.6,0-7.2-1.3-10.5-3.6c-1-0.7-1.3-1.6-1.3-2.6v-7.5c0-1.6,1.3-3.3,3.3-3.3H136
		c1.6,0,3.3,1.3,3.3,3.3v7.5c0,1-0.7,2-1.3,2.6C134,44.3,130.3,45.6,126.8,45.6z M135.7,39.4L135.7,39.4L135.7,39.4z M120.9,37.8
		c3.9,2.3,7.5,2.3,11.5,0v-2.9h-11.5C120.9,34.9,120.9,37.8,120.9,37.8z"/>
</g>
<path class="st5" d="M168.1,61c-0.3,0-0.7,0-1-0.3c-27.2-10.2-54.7-10.2-81.3,0c-1.6,0.7-3.3-0.3-3.9-1.6c-0.7-1.6,0.3-3.3,2-3.9
	c28.2-10.8,57-10.8,85.9,0c1.6,0.7,2.3,2.3,2,3.9C170.7,60,169.4,61,168.1,61z"/>
<circle class="st6" cx="194.5" cy="197.2" r="53.1"/>
<g>
	<defs>
		<rect id="SVGID_1_" x="174" y="165.8" width="48.9" height="62.8"/>
	</defs>
	<clipPath id="SVGID_00000018218868600523523510000010278803764658276484_">
		<use xlink:href="#SVGID_1_"  style="overflow:visible;"/>
	</clipPath>
	<g style="clip-path:url(#SVGID_00000018218868600523523510000010278803764658276484_);">
		<path d="M218.8,190.6c0,0-0.1-0.1-0.1-0.1c0,0,0,0-0.1-0.1c0.1-0.1,0.1-0.3,0.2-0.4c0.2-0.4,0.3-0.8,0.5-1.2
			c0.1-0.2,0.1-0.5,0.2-0.7c0.3-0.9,0.5-1.8,0.6-2.8c0-0.5,0-1.1-0.2-1.5c-0.2-0.5-0.5-0.9-0.9-1.3c-0.4-0.4-0.9-0.7-1.4-0.9
			c-0.5-0.2-1.1-0.3-1.7-0.2c-0.2,0-0.4,0-0.6,0.1l-0.2,0l0.1-0.7c0.1-0.7,0.2-1.3,0.2-2c0.2-1.6-0.4-2.5-0.9-3
			c-0.5-0.4-1-0.7-1.6-0.9c-0.6-0.2-1.2-0.2-1.8-0.1c-1.1,0.2-2.2,0.6-3.3,1.5c-0.2,0.2-0.5,0.4-0.7,0.6l-0.2,0.2c0-0.1,0-0.3,0-0.4
			c0-0.4,0-0.8,0-1.1c-0.1-2-1.2-3.1-3.2-3.2c-0.6-0.1-1.1,0-1.6,0.2c-0.5,0.2-1,0.5-1.4,0.9c-0.7,0.7-1.3,1.5-2,2.2
			c-0.2,0.2-0.4,0.5-0.6,0.7c-3.7,4.4-6.9,9.4-10,14.2l-0.6,1c-0.2,0.3-0.4,0.5-0.6,0.8c-0.1,0.1-0.1,0.2-0.2,0.3l0,0c0,0,0,0,0,0
			c0-0.1-0.1-0.2-0.1-0.4c0-0.1-0.1-0.3-0.1-0.4c-1.1-3.1-3.1-5.3-5.8-6.6c-0.6-0.3-1.3-0.5-2-0.4c-0.7,0-1.4,0.3-2,0.6
			c-0.6,0.4-1.1,1-1.4,1.6c-0.3,0.7-0.5,1.4-0.5,2.1c0,0.7,0.2,1.5,0.4,2.2l0.1,0.3c0.6,2.7,0.8,4.8,0.6,6.8
			c-0.2,1.4-0.4,2.9-0.6,4.3c-0.2,1.4-0.4,2.8-0.5,4.2c-0.2,1.8-0.3,3.5-0.4,5.3c0,1,0.2,2,0.5,2.9c2.1,6.4,6.3,10.6,12.4,12.7
			c1.7,0.6,3.4,0.9,5.2,0.9c1.8,0,3.5-0.3,5.2-1c2.8-1.1,5.3-2.7,7.4-4.8c2.7-2.8,5.6-5.7,8.2-9c2.2-2.8,5-6.3,6.9-10.2
			c1.1-2,1.9-4.2,2.6-6.4C223.5,194.1,222,191.6,218.8,190.6z M178.2,190.4c-0.2-0.6-0.3-1.2-0.4-1.9c0-0.5,0.1-1,0.4-1.2
			c0.3-0.2,0.7-0.3,1.3-0.2c0.8,0.2,1.6,0.7,2.2,1.3c1.8,1.9,2.5,3.6,2.4,5.5c-0.1,0.6-0.2,1.1-0.4,1.7c0,0.1-0.1,0.3-0.1,0.4
			c-0.2,0.6-0.3,1.3,0.4,1.8c0.6,0.4,1.3,0.3,1.8-0.2c0.4-0.4,0.7-0.8,1-1.2c1-1.6,2.1-3.1,3.1-4.7c2.1-3.2,4.3-6.5,6.6-9.7
			c1.2-1.8,2.6-3.5,4-5.2c0.3-0.4,0.6-0.7,0.9-1.1c0.4-0.5,0.9-0.9,1.5-1.2c0.5-0.2,0.9-0.2,1.2,0c0.3,0.2,0.4,0.6,0.4,1.1
			c0,0.9-0.2,1.7-0.6,2.5c-0.8,1.7-1.7,3.4-2.7,5c-1.5,2.4-3,4.9-4.5,7.2c-0.7,1.1-1.4,2.2-2.1,3.4c-0.1,0.2-0.2,0.4-0.3,0.7
			c-0.1,0.3-0.1,0.6,0,0.9c0.1,0.3,0.3,0.5,0.6,0.6c0.1,0.1,0.3,0.1,0.4,0.2c0.1,0,0.3,0,0.4,0c0.1,0,0.3-0.1,0.4-0.2
			c0.1-0.1,0.2-0.2,0.3-0.3c0.2-0.3,0.4-0.5,0.6-0.8c0.5-0.6,0.9-1.2,1.3-1.9c2.1-3.6,4.7-7,7-9.9c0.9-1.1,1.9-2.3,3.1-3.8
			c0.7-0.9,1.7-1.5,2.8-1.9c0.6-0.2,1-0.2,1.2,0c0.2,0.2,0.3,0.6,0.2,1.2c-0.2,2.1-1.2,3.9-2,5.4c-2.4,4.3-5.4,8.5-9.3,13.3
			c-0.2,0.2-0.4,0.5-0.6,0.7c-0.3,0.3-0.6,0.7-0.8,1c-0.3,0.5-0.5,0.9-0.3,1.3c0.1,0.4,0.5,0.7,1.1,0.9c0.9,0.3,1.7,0,2.4-0.8
			l0.3-0.4c0.8-0.9,1.6-1.9,2.3-2.9c1.7-2.5,3.3-5,5-7.4l0.7-1.1c0.3-0.4,0.5-0.8,0.7-1.2c0.2-0.3,0.3-0.6,0.5-0.8
			c0.7-1.1,1.8-2,3-2.5c0.7-0.3,1.1-0.2,1.5,0.2c0.4,0.4,0.4,0.8,0.2,1.4c-0.6,2.2-1.6,4.3-2.9,6.1c-1.4,1.9-2.8,3.8-4.1,5.6
			c-0.9,1.2-1.8,2.4-2.7,3.6c-0.4,0.5-0.8,1.1-1.2,1.7c-0.3,0.4-0.6,0.9-0.9,1.3c-0.5,0.7-0.5,1.5,0.1,2.2c0.3,0.4,0.7,0.7,1,0.7h0
			c0.2,0,0.4-0.1,0.6-0.2c0.2-0.1,0.3-0.2,0.4-0.4c0.4-0.5,0.8-1.1,1.2-1.6c0.3-0.4,0.5-0.8,0.8-1.1c0.5-0.7,1-1.3,1.5-2
			c1.5-2.1,3.1-4.3,4.8-6.4c0.5-0.6,1.4-1,2.1-1.3l0.2-0.1c0.1-0.1,0.2-0.1,0.4-0.1c0.1,0,0.3,0,0.4,0.1c0.1,0.1,0.3,0.2,0.3,0.3
			c0.1,0.1,0.1,0.3,0.1,0.5c0.1,1.1,0.1,1.9-0.1,2.5c-1.1,2.6-2.1,4.9-3.2,7.1c-1.5,2.9-3.5,5.5-5.5,7.9c-0.5,0.7-1,1.4-1.5,2.1
			c-0.5,0.8-1,1.5-1.6,2.2c-1.3,1.6-2.9,3.1-4.3,4.4c-1.8,1.7-4,3.1-6.4,3.9c-2.4,0.8-5,0.8-7.9-0.1c-5.4-1.7-9.2-5.5-11.1-11.1
			c-0.2-0.7-0.3-1.4-0.4-2.2c0-0.3,0-0.6-0.1-0.8c0.1-0.5,0.1-0.9,0.1-1.3c0.1-0.9,0.2-1.7,0.3-2.4c0.1-1.1,0.3-2.1,0.5-3.2
			c0.2-1.6,0.5-3.3,0.7-5C179.1,196,178.9,193.2,178.2,190.4z"/>
		<path d="M195.6,172.8c-0.1,0.1-0.2,0.2-0.3,0.4c-0.3,0.4-0.6,0.9-0.8,1.3c-0.1,0.2-0.1,0.4,0,0.7c0,0.2,0.2,0.4,0.3,0.6
			c0.3,0.3,1.1,0.2,1.3,0.2c0.3-0.1,0.7-0.3,0.9-0.6c0.2-0.2,0.4-0.5,0.6-0.7c0.8-0.9,1.7-1.9,2.5-2.9c0.4-0.6,0.6-1.1,0.5-1.5
			c-0.1-0.5-0.4-0.9-1.1-1.4c-1-0.7-2.1-1.4-3.4-2.2c-0.1-0.1-0.2-0.1-0.3-0.2c-0.4-0.3-1-0.8-1.6,0c-0.6,0.7,0.1,1.2,0.5,1.6
			c0.1,0.1,0.1,0.1,0.2,0.2c0.4,0.4,0.9,0.8,1.4,1.2c0.1,0.1,0.3,0.2,0.4,0.3c-0.2,0-0.5,0-0.7,0c-0.7,0-1.3,0-2,0
			c-4.5,0.2-8.8,1.8-12.6,4.6c-1.7,1.3-3.2,3-4.1,4.9c-0.1,0.2-0.1,0.3-0.2,0.5c0,0.1-0.1,0.2-0.1,0.3c-0.1,0.1-0.1,0.3-0.1,0.5
			c0,0.2,0,0.3,0.1,0.5c0,0.1,0.1,0.2,0.2,0.2c0.1,0.1,0.2,0.1,0.3,0.1c0,0,0.1,0,0.1,0c0.4-0.1,0.7-0.2,1-0.5
			c0.1-0.1,0.3-0.3,0.3-0.5c0-0.1,0.1-0.2,0.1-0.3c0.2-0.2,0.3-0.5,0.5-0.8c0.4-0.6,0.8-1.2,1.3-1.7c4.3-4.2,9.3-6.1,15.5-5.8
			c-0.1,0.1-0.2,0.2-0.2,0.3C195.9,172.3,195.7,172.5,195.6,172.8z"/>
	</g>
</g>
</svg>
