<?xml version="1.0" encoding="utf-8"?>
<!-- Generator: Adobe Illustrator 27.4.0, SVG Export Plug-In . SVG Version: 6.00 Build 0)  -->
<svg version="1.1" xmlns="http://www.w3.org/2000/svg" xmlns:xlink="http://www.w3.org/1999/xlink" x="0px" y="0px"
	 viewBox="0 0 256 256" style="enable-background:new 0 0 256 256;" xml:space="preserve">
<style type="text/css">
	.st0{fill-rule:evenodd;clip-rule:evenodd;}
	.st1{fill:#FFFFFF;stroke:#000000;stroke-width:6;stroke-miterlimit:10;}
	.st2{clip-path:url(#SVGID_00000067945070060042965430000000510021429021834146_);}
</style>
<g id="Layer_2">
	<g id="Layer_6">
		<path class="st0" d="M243.8,121.3h-67.1c-1.5,0-2.8-1.4-2.8-3.3l-0.8-49.9c0-1.9,1.2-3.4,2.8-3.4h53.9c1.2,0,2.3,0.9,2.7,2.3
			l14.1,51C246.6,119.9,245.3,121.3,243.8,121.3L243.8,121.3z M179.5,114.7h60.4l-12-43.3h-49L179.5,114.7L179.5,114.7z"/>
		<path class="st0" d="M243.7,168.7H235c-4.6-10.5-14-17.8-24.8-17.8s-20.1,7.2-24.8,17.8h-8.7c-1.6,0-2.8-1.5-2.8-3.3V118
			c0-1.8,1.3-3.3,2.8-3.3h67c1.6,0,2.8,1.5,2.8,3.3v47.4C246.5,167.2,245.3,168.7,243.7,168.7L243.7,168.7z M201,133.5h-14.7
			c-3.7,0-3.7-6.6,0-6.6H201C204.7,126.9,204.7,133.5,201,133.5z M59.9,195.5H28.4c-8.1,0-10.7-8.6-13.8-15.1L8,167
			c-1.1-2.2,0.3-5,2.4-5h54.5c-4.3,5.8-6.9,13.3-6.9,21.6C58,187.8,58.7,191.8,59.9,195.5L59.9,195.5z"/>
		<path class="st0" d="M184.3,195.5h-72.5c1.2-3.7,1.9-7.7,1.9-11.9c0-8.3-2.6-15.8-6.9-21.6h82.5c-4.3,5.8-6.9,13.3-6.9,21.6
			C182.4,187.8,183.1,191.8,184.3,195.5L184.3,195.5z M231.1,162.1h12.6c1.6,0,2.8,1.5,2.8,3.3v13.4c0,7.6-4.3,14-10.2,16
			c1.1-3.5,1.7-7.3,1.7-11.2C238.1,175.4,235.4,167.8,231.1,162.1L231.1,162.1z M71.8,155.4H10.5c-1,0-2,0.2-2.8,0.6v-13.8
			c0-1.8,1.3-3.3,2.8-3.3h27.2l53.1-80.4c0.5-0.8,1.4-1.3,2.2-1.3h58.4c1.6,0,2.8,1.5,2.8,3.3v94.8H99.9c-4.1-2.9-9-4.5-14.1-4.5
			C80.7,150.9,75.9,152.6,71.8,155.4L71.8,155.4z M86.5,138.3H75.8c-3.7,0-3.7-6.6,0-6.6h7.9V96.2c0-4.4,5.6-4.4,5.6,0V135
			C89.3,136.9,88.1,138.3,86.5,138.3L86.5,138.3z M111.3,138.3h-10.7c-3.7,0-3.7-6.6,0-6.6h7.9V96.2c0-4.4,5.6-4.4,5.6,0V135
			C114.1,136.9,112.8,138.3,111.3,138.3L111.3,138.3z M136,138.3h-10.7c-3.7,0-3.7-6.6,0-6.6h7.9V96.2c0-4.4,5.6-4.4,5.6,0V135
			C138.8,136.9,137.6,138.3,136,138.3L136,138.3z"/>
		<path class="st0" d="M24.1,132.3l51.6-78.8c-0.8-4.9-2.9-12.9-1.4-15l2.2-1.2h12.8c1,0,1.9,0.6,2.4,1.6c3.6,7.1,5.2,9.6,5.7,11.7
			H93c-2.6,0-5.1,1.4-6.7,3.8l-51.4,77.8L24.1,132.3L24.1,132.3z"/>
		<path class="st0" d="M85.9,209.7c-12.2,0-22.2-11.7-22.2-26.1c0-14.4,10-26.1,22.2-26.1s22.2,11.7,22.2,26.1
			C108.1,198,98.1,209.7,85.9,209.7L85.9,209.7z M85.9,196.6c-14.5,0-14.5-25.8,0-25.8S100.3,196.6,85.9,196.6z M85.9,177.3
			c-7,0-7,12.6,0,12.6C92.9,189.9,92.9,177.3,85.9,177.3z M210.2,209.7c-12.2,0-22.2-11.7-22.2-26.1c0-14.4,10-26.1,22.2-26.1
			s22.2,11.7,22.2,26.1S222.5,209.7,210.2,209.7L210.2,209.7z M210.2,196.6c-14.5,0-14.5-25.8,0-25.8
			C224.7,170.7,224.7,196.6,210.2,196.6z M210.2,177.3c-7,0-7,12.6,0,12.6C217.3,189.9,217.3,177.3,210.2,177.3z"/>
		<polygon class="st0" points="168.3,137.7 160,137.7 160,109.2 168.2,109.2 168.3,118.1 		"/>
		<path class="st0" d="M243.7,121.3c-1.8,0-24.4-16.1-27.8-18.4c-3.2-2.2-0.4-7.9,2.8-5.7l26.4,17.9
			C247.6,116.9,246.6,121.3,243.7,121.3L243.7,121.3z"/>
		<path class="st0" d="M214.2,109.7c-2.1,0-3.5-2.7-2.4-5l6.2-12.6c1.9-3.8,6.7-0.5,4.9,3.3l-6.2,12.6
			C216.2,109.1,215.2,109.7,214.2,109.7L214.2,109.7z"/>
		<path class="st0" d="M245.5,209.7H12.3c-3.7,0-3.7-6.6,0-6.6h233.2C249.3,203.1,249.3,209.7,245.5,209.7z"/>
	</g>
</g>
<g id="Layer_1">
	<circle class="st1" cx="194.5" cy="197.2" r="53.1"/>
	<g>
		<defs>
			<rect id="SVGID_1_" x="174" y="165.8" width="48.9" height="62.8"/>
		</defs>
		<clipPath id="SVGID_00000114795018616428728580000000683695604893816982_">
			<use xlink:href="#SVGID_1_"  style="overflow:visible;"/>
		</clipPath>
		<g style="clip-path:url(#SVGID_00000114795018616428728580000000683695604893816982_);">
			<path d="M218.8,190.6c0,0-0.1-0.1-0.1-0.1c0,0,0,0-0.1-0.1c0.1-0.1,0.1-0.3,0.2-0.4c0.2-0.4,0.3-0.8,0.5-1.2
				c0.1-0.2,0.1-0.5,0.2-0.7c0.3-0.9,0.5-1.8,0.6-2.8c0-0.5,0-1.1-0.2-1.5c-0.2-0.5-0.5-0.9-0.9-1.3c-0.4-0.4-0.9-0.7-1.4-0.9
				c-0.5-0.2-1.1-0.3-1.7-0.2c-0.2,0-0.4,0-0.6,0.1l-0.2,0l0.1-0.7c0.1-0.7,0.2-1.3,0.2-2c0.2-1.6-0.4-2.5-0.9-3
				c-0.5-0.4-1-0.7-1.6-0.9c-0.6-0.2-1.2-0.2-1.8-0.1c-1.1,0.2-2.2,0.6-3.3,1.5c-0.2,0.2-0.5,0.4-0.7,0.6l-0.2,0.2
				c0-0.1,0-0.3,0-0.4c0-0.4,0-0.8,0-1.1c-0.1-2-1.2-3.1-3.2-3.2c-0.6-0.1-1.1,0-1.6,0.2c-0.5,0.2-1,0.5-1.4,0.9
				c-0.7,0.7-1.3,1.5-2,2.2c-0.2,0.2-0.4,0.5-0.6,0.7c-3.7,4.4-6.9,9.4-10,14.2l-0.6,1c-0.2,0.3-0.4,0.5-0.6,0.8
				c-0.1,0.1-0.1,0.2-0.2,0.3l0,0c0,0,0,0,0,0c0-0.1-0.1-0.2-0.1-0.4c0-0.1-0.1-0.3-0.1-0.4c-1.1-3.1-3.1-5.3-5.8-6.6
				c-0.6-0.3-1.3-0.5-2-0.4c-0.7,0-1.4,0.3-2,0.6c-0.6,0.4-1.1,1-1.4,1.6c-0.3,0.7-0.5,1.4-0.5,2.1c0,0.7,0.2,1.5,0.4,2.2l0.1,0.3
				c0.6,2.7,0.8,4.8,0.6,6.8c-0.2,1.4-0.4,2.9-0.6,4.3c-0.2,1.4-0.4,2.8-0.5,4.2c-0.2,1.8-0.3,3.5-0.4,5.3c0,1,0.2,2,0.5,2.9
				c2.1,6.4,6.3,10.6,12.4,12.7c1.7,0.6,3.4,0.9,5.2,0.9c1.8,0,3.5-0.3,5.2-1c2.8-1.1,5.3-2.7,7.4-4.8c2.7-2.8,5.6-5.7,8.2-9
				c2.2-2.8,5-6.3,6.9-10.2c1.1-2,1.9-4.2,2.6-6.4C223.5,194.1,222,191.6,218.8,190.6z M178.2,190.4c-0.2-0.6-0.3-1.2-0.4-1.9
				c0-0.5,0.1-1,0.4-1.2c0.3-0.2,0.7-0.3,1.3-0.2c0.8,0.2,1.6,0.7,2.2,1.3c1.8,1.9,2.5,3.6,2.4,5.5c-0.1,0.6-0.2,1.1-0.4,1.7
				c0,0.1-0.1,0.3-0.1,0.4c-0.2,0.6-0.3,1.3,0.4,1.8c0.6,0.4,1.3,0.3,1.8-0.2c0.4-0.4,0.7-0.8,1-1.2c1-1.6,2.1-3.1,3.1-4.7
				c2.1-3.2,4.3-6.5,6.6-9.7c1.2-1.8,2.6-3.5,4-5.2c0.3-0.4,0.6-0.7,0.9-1.1c0.4-0.5,0.9-0.9,1.5-1.2c0.5-0.2,0.9-0.2,1.2,0
				c0.3,0.2,0.4,0.6,0.4,1.1c0,0.9-0.2,1.7-0.6,2.5c-0.8,1.7-1.7,3.4-2.7,5c-1.5,2.4-3,4.9-4.5,7.2c-0.7,1.1-1.4,2.2-2.1,3.4
				c-0.1,0.2-0.2,0.4-0.3,0.7c-0.1,0.3-0.1,0.6,0,0.9c0.1,0.3,0.3,0.5,0.6,0.6c0.1,0.1,0.3,0.1,0.4,0.2c0.1,0,0.3,0,0.4,0
				c0.1,0,0.3-0.1,0.4-0.2c0.1-0.1,0.2-0.2,0.3-0.3c0.2-0.3,0.4-0.5,0.6-0.8c0.5-0.6,0.9-1.2,1.3-1.9c2.1-3.6,4.7-7,7-9.9
				c0.9-1.1,1.9-2.3,3.1-3.8c0.7-0.9,1.7-1.5,2.8-1.9c0.6-0.2,1-0.2,1.2,0c0.2,0.2,0.3,0.6,0.2,1.2c-0.2,2.1-1.2,3.9-2,5.4
				c-2.4,4.3-5.4,8.5-9.3,13.3c-0.2,0.2-0.4,0.5-0.6,0.7c-0.3,0.3-0.6,0.7-0.8,1c-0.3,0.5-0.5,0.9-0.3,1.3c0.1,0.4,0.5,0.7,1.1,0.9
				c0.9,0.3,1.7,0,2.4-0.8l0.3-0.4c0.8-0.9,1.6-1.9,2.3-2.9c1.7-2.5,3.3-5,5-7.4l0.7-1.1c0.3-0.4,0.5-0.8,0.7-1.2
				c0.2-0.3,0.3-0.6,0.5-0.8c0.7-1.1,1.8-2,3-2.5c0.7-0.3,1.1-0.2,1.5,0.2c0.4,0.4,0.4,0.8,0.2,1.4c-0.6,2.2-1.6,4.3-2.9,6.1
				c-1.4,1.9-2.8,3.8-4.1,5.6c-0.9,1.2-1.8,2.4-2.7,3.6c-0.4,0.5-0.8,1.1-1.2,1.7c-0.3,0.4-0.6,0.9-0.9,1.3
				c-0.5,0.7-0.5,1.5,0.1,2.2c0.3,0.4,0.7,0.7,1,0.7h0c0.2,0,0.4-0.1,0.6-0.2c0.2-0.1,0.3-0.2,0.4-0.4c0.4-0.5,0.8-1.1,1.2-1.6
				c0.3-0.4,0.5-0.8,0.8-1.1c0.5-0.7,1-1.3,1.5-2c1.5-2.1,3.1-4.3,4.8-6.4c0.5-0.6,1.4-1,2.1-1.3l0.2-0.1c0.1-0.1,0.2-0.1,0.4-0.1
				c0.1,0,0.3,0,0.4,0.1c0.1,0.1,0.3,0.2,0.3,0.3c0.1,0.1,0.1,0.3,0.1,0.5c0.1,1.1,0.1,1.9-0.1,2.5c-1.1,2.6-2.1,4.9-3.2,7.1
				c-1.5,2.9-3.5,5.5-5.5,7.9c-0.5,0.7-1,1.4-1.5,2.1c-0.5,0.8-1,1.5-1.6,2.2c-1.3,1.6-2.9,3.1-4.3,4.4c-1.8,1.7-4,3.1-6.4,3.9
				c-2.4,0.8-5,0.8-7.9-0.1c-5.4-1.7-9.2-5.5-11.1-11.1c-0.2-0.7-0.3-1.4-0.4-2.2c0-0.3,0-0.6-0.1-0.8c0.1-0.5,0.1-0.9,0.1-1.3
				c0.1-0.9,0.2-1.7,0.3-2.4c0.1-1.1,0.3-2.1,0.5-3.2c0.2-1.6,0.5-3.3,0.7-5C179.1,196,178.9,193.2,178.2,190.4z"/>
			<path d="M195.6,172.8c-0.1,0.1-0.2,0.2-0.3,0.4c-0.3,0.4-0.6,0.9-0.8,1.3c-0.1,0.2-0.1,0.4,0,0.7c0,0.2,0.2,0.4,0.3,0.6
				c0.3,0.3,1.1,0.2,1.3,0.2c0.3-0.1,0.7-0.3,0.9-0.6c0.2-0.2,0.4-0.5,0.6-0.7c0.8-0.9,1.7-1.9,2.5-2.9c0.4-0.6,0.6-1.1,0.5-1.5
				c-0.1-0.5-0.4-0.9-1.1-1.4c-1-0.7-2.1-1.4-3.4-2.2c-0.1-0.1-0.2-0.1-0.3-0.2c-0.4-0.3-1-0.8-1.6,0c-0.6,0.7,0.1,1.2,0.5,1.6
				c0.1,0.1,0.1,0.1,0.2,0.2c0.4,0.4,0.9,0.8,1.4,1.2c0.1,0.1,0.3,0.2,0.4,0.3c-0.2,0-0.5,0-0.7,0c-0.7,0-1.3,0-2,0
				c-4.5,0.2-8.8,1.8-12.6,4.6c-1.7,1.3-3.2,3-4.1,4.9c-0.1,0.2-0.1,0.3-0.2,0.5c0,0.1-0.1,0.2-0.1,0.3c-0.1,0.1-0.1,0.3-0.1,0.5
				c0,0.2,0,0.3,0.1,0.5c0,0.1,0.1,0.2,0.2,0.2c0.1,0.1,0.2,0.1,0.3,0.1c0,0,0.1,0,0.1,0c0.4-0.1,0.7-0.2,1-0.5
				c0.1-0.1,0.3-0.3,0.3-0.5c0-0.1,0.1-0.2,0.1-0.3c0.2-0.2,0.3-0.5,0.5-0.8c0.4-0.6,0.8-1.2,1.3-1.7c4.3-4.2,9.3-6.1,15.5-5.8
				c-0.1,0.1-0.2,0.2-0.2,0.3C195.9,172.3,195.7,172.5,195.6,172.8z"/>
		</g>
	</g>
</g>
</svg>
